<svg xmlns="http://www.w3.org/2000/svg" width="720" height="720" viewBox="0 0 720 720" role="img" aria-labelledby="title desc">
  <title id="title">Any-to-OpenCode</title><desc id="desc">Any compatible harness connects to an exact OpenCode session.</desc>
  <defs><linearGradient id="bg" x1="0" y1="0" x2="1" y2="1"><stop stop-color="#070B12"/><stop offset="1" stop-color="#111827"/></linearGradient></defs>
  <rect width="720" height="720" rx="30" fill="url(#bg)"/>
  <g transform="translate(548 54)" color="#5EEAD4"><svg width="108" height="108" viewBox="0 0 300 300" fill="currentColor"><g transform="translate(30, 0)">
<g clip-path="url(#clip0_1401_86283)">
<mask id="mask0_1401_86283" style="mask-type:luminance" maskUnits="userSpaceOnUse" x="0" y="0" width="240" height="300">
<path d="M240 0H0V300H240V0Z" fill="white"/>
</mask>
<g mask="url(#mask0_1401_86283)">
<path d="M180 240H60V120H180V240Z" fill="#4B4646"/>
<path d="M180 60H60V240H180V60ZM240 300H0V0H240V300Z" fill="#F1ECEC"/>
</g>
</g>
</g>
<defs>
<clipPath id="clip0_1401_86283">
<rect width="240" height="300" fill="white"/>
</clipPath>
</defs></svg></g>
  <g transform="translate(54 62)" font-family="-apple-system, BlinkMacSystemFont, Segoe UI, sans-serif">
    <text x="0" y="0" fill="#9CA3AF" font-family="ui-monospace, SFMono-Regular, Consolas, monospace" font-size="20">ANY-TO HARNESS ADAPTER</text>
    <text x="0" y="94" fill="#F8FAFC" font-size="58" font-weight="760">Any-to</text>
    <text x="0" y="160" fill="#5EEAD4" font-size="58" font-weight="760">OpenCode</text>
    <text x="0" y="214" fill="#CBD5E1" font-size="25">Any harness. Exact session.</text>
  </g>
  <g transform="translate(54 328)">
    <rect width="612" height="300" rx="24" fill="#0A1220" stroke="#334155" stroke-width="2"/>
    <path d="M100 76V225" stroke="#7DD3FC" stroke-width="4" stroke-linecap="round"/>
    <g font-family="ui-monospace, SFMono-Regular, Consolas, monospace" font-size="22">
      <circle cx="100" cy="76" r="11" fill="#7DD3FC"/><text x="138" y="84" fill="#F8FAFC">any compatible harness</text>
      <circle cx="100" cy="151" r="11" fill="#F8FAFC"/><text x="138" y="159" fill="#F8FAFC">Python adapter</text>
      <circle cx="100" cy="225" r="11" fill="#5EEAD4"/><text x="138" y="233" fill="#F8FAFC">OpenCode session</text>
      <text x="306" y="278" text-anchor="middle" fill="#5EEAD4" font-size="18">FREE POOL · EXACT SESSIONS</text>
    </g>
  </g>
</svg>