<svg xmlns="http://www.w3.org/2000/svg" width="1200" height="420" viewBox="0 0 1200 420" role="img" aria-labelledby="title desc">
  <title id="title">Any-to-OpenCode</title>
  <desc id="desc">Route work from any compatible coding harness to an exact OpenCode session.</desc>
  <defs>
    <linearGradient id="bg" x1="0" y1="0" x2="1" y2="1"><stop stop-color="#070B12"/><stop offset="1" stop-color="#111827"/></linearGradient>
    <linearGradient id="trace" x1="0" y1="0" x2="1" y2="0"><stop stop-color="#7DD3FC"/><stop offset="1" stop-color="#5EEAD4"/></linearGradient>
  </defs>
  <rect width="1200" height="420" rx="30" fill="url(#bg)"/>
  <path d="M0 78H1200M706 78V420" stroke="#273244"/>
  <g font-family="ui-monospace, SFMono-Regular, Consolas, monospace" font-size="18">
    <circle cx="58" cy="39" r="6" fill="#5EEAD4"/><text x="76" y="46" fill="#9CA3AF">ANY-TO HARNESS ADAPTER</text>
    <text x="1140" y="46" text-anchor="end" fill="#7DD3FC">FREE POOL · EXACT SESSIONS</text>
  </g>
  <g transform="translate(58 126)" font-family="-apple-system, BlinkMacSystemFont, Segoe UI, sans-serif">
    <text x="0" y="0" fill="#F8FAFC" font-size="59" font-weight="760">Any-to</text>
    <text x="0" y="68" fill="#5EEAD4" font-size="59" font-weight="760">OpenCode</text>
    <text x="0" y="124" fill="#CBD5E1" font-size="25">Send work from any compatible harness.</text>
    <text x="0" y="160" fill="#CBD5E1" font-size="25">Keep the exact workspace, model, and session.</text>
  </g>
  <g transform="translate(748 105)">
    <rect width="394" height="270" rx="22" fill="#0A1220" stroke="#334155" stroke-width="2"/>
    <g transform="translate(275 22)" color="#5EEAD4"><svg width="88" height="88" viewBox="0 0 300 300" fill="currentColor"><g transform="translate(30, 0)">
<g clip-path="url(#clip0_1401_86283)">
<mask id="mask0_1401_86283" style="mask-type:luminance" maskUnits="userSpaceOnUse" x="0" y="0" width="240" height="300">
<path d="M240 0H0V300H240V0Z" fill="white"/>
</mask>
<g mask="url(#mask0_1401_86283)">
<path d="M180 240H60V120H180V240Z" fill="#4B4646"/>
<path d="M180 60H60V240H180V60ZM240 300H0V0H240V300Z" fill="#F1ECEC"/>
</g>
</g>
</g>
<defs>
<clipPath id="clip0_1401_86283">
<rect width="240" height="300" fill="white"/>
</clipPath>
</defs></svg></g>
    <text x="26" y="51" fill="#94A3B8" font-family="ui-monospace, SFMono-Regular, Consolas, monospace" font-size="17">ROUTE</text>
    <text x="26" y="84" fill="#F8FAFC" font-family="-apple-system, BlinkMacSystemFont, Segoe UI, sans-serif" font-size="29" font-weight="700">OpenCode</text>
    <path d="M50 164H344" stroke="url(#trace)" stroke-width="4" stroke-linecap="round"/>
    <g font-family="ui-monospace, SFMono-Regular, Consolas, monospace" font-size="17" text-anchor="middle">
      <circle cx="50" cy="164" r="9" fill="#7DD3FC"/><text x="50" y="202" fill="#CBD5E1">any harness</text>
      <circle cx="197" cy="164" r="9" fill="#F8FAFC"/><text x="197" y="202" fill="#CBD5E1">adapter</text>
      <circle cx="344" cy="164" r="9" fill="#5EEAD4"/><text x="344" y="202" fill="#CBD5E1">exact session</text>
    </g>
    <text x="197" y="246" text-anchor="middle" fill="#7DD3FC" font-family="ui-monospace, SFMono-Regular, Consolas, monospace" font-size="17">STATUS · INVOKE · SMOKE TEST</text>
  </g>
</svg>